<svg xmlns="http://www.w3.org/2000/svg" viewBox="0 0 762 762" fill="none" shape-rendering="auto" width="256" height="256"><metadata xmlns:rdf="http://www.w3.org/1999/02/22-rdf-syntax-ns#" xmlns:xsi="http://www.w3.org/2001/XMLSchema-instance" xmlns:dc="http://purl.org/dc/elements/1.1/" xmlns:dcterms="http://purl.org/dc/terms/"><rdf:RDF><rdf:Description><dc:title>Adventurer</dc:title><dc:creator>Lisa Wischofsky</dc:creator><dc:source xsi:type="dcterms:URI">https://www.figma.com/community/file/1184595184137881796</dc:source><dcterms:license xsi:type="dcterms:URI">https://creativecommons.org/licenses/by/4.0/</dcterms:license><dc:rights>Remix of „Adventurer” (https://www.figma.com/community/file/1184595184137881796) by „Lisa Wischofsky”, licensed under „CC BY 4.0” (https://creativecommons.org/licenses/by/4.0/)</dc:rights></rdf:Description></rdf:RDF></metadata><mask id="viewboxMask"><rect width="762" height="762" rx="381" ry="381" x="0" y="0" fill="#fff" /></mask><g mask="url(#viewboxMask)"><rect fill="#eee1d5" width="762" height="762" x="0" y="0" /><path d="M396 164.8a224.8 224.8 0 0 1 104.8 42.4c6.2 4.9 12.5 9.4 18 15a225.4 225.4 0 0 1 71.8 149 58.5 58.5 0 0 1 50.9 42.2 71 71 0 0 1-27.6 76.5c-11 7.7-24.5 12-38 11.7-5 0-10-1.6-15-1.8-1.9 2.2-3.3 4.9-4.8 7.3A223.3 223.3 0 0 1 389 609.8c-11 .7-21.9 2-33 .7a223.7 223.7 0 0 1-178.8-342.3A223.4 223.4 0 0 1 352 163.5c14.6-1.4 29.4-.3 44 1.3Z" fill="#000"/><path fill-rule="evenodd" clip-rule="evenodd" d="M498.8 213.2A216 216 0 0 0 363 169c-13-.2-26.2 1.6-39 4a218 218 0 0 0-113.6 365.5 218.5 218.5 0 0 0 260.4 40.2c35-18.8 64.2-47.3 84.4-81.5l-3-1.6c-2.8-1.4-5.7-3-8-5-2.2-2-.3-5.8 2.7-4.7 1.5.7 3 1.6 4.4 2.4a55 55 0 0 0 59.6-3.6 64.5 64.5 0 0 0 25-69.8 53.1 53.1 0 0 0-24-31 52.6 52.6 0 0 0-47-2.8c-1.6.8-3.4 1.5-5 1.3-2.5-.2-2.8-4.2-.6-5.2 8-4 16.5-5.6 25.4-6.4a217 217 0 0 0-72-146.4c-4.4-4-8.7-8.1-13.9-11.3Zm107.6 196.2c2-1.2 1.3-5.1-1.4-5-2 0-4.2.8-6.2 1.6l-1.4.4a95.1 95.1 0 0 0-25.5 12.4c-2.2 2-2.2 4.4.1 6.2a92 92 0 0 0 5.2 2.8 36 36 0 0 1 13 9.2c-.2 1.9-2 3.4-3.4 4.5l-.2.2c-3.9 3-8.8 5-13.6 7-2.5 1-4.9 2-7.1 3.1-1.7.8-2.6 2.2-1.6 3.9 1 2 3.2 1.1 5 .5l.6-.2 5.4-2.3c5.4-2.3 11-4.5 15.4-8 2.7-2.1 5.1-5.1 5.4-8.7-.5-3.4-2.7-5.7-5.3-7.8a83 83 0 0 0-11.6-7.2l-1.1-.6c5.4-3 10.8-5.6 16.6-7.7l5-1.7a52 52 0 0 0 6.7-2.6Z" fill="#8a5235"/><g transform="translate(-161 -83)"><path d="M558.2 453.2c11.5-1.6 23.7.2 34 5.5 7.6 4 14.3 10.3 18.1 18a32.5 32.5 0 0 1 2.1 21.8c-2 8-7.2 15.2-13.7 20.2a57.4 57.4 0 0 1-54.2 7.8 43.6 43.6 0 0 1-21.4-16.6 34.2 34.2 0 0 1-5.4-15.9 34.5 34.5 0 0 1 10.3-26c8-8.4 18.9-13 30.2-14.8Z" fill="#000"/><path d="M559.2 459.1c14-2 29.7 1.6 39.8 11.9 6.6 6.5 10.4 17 7.7 26-2 8.2-7.7 14.5-14.6 19.2a52 52 0 0 1-43 5.6c-8.7-2.7-17.1-8.2-21.8-16.1-3-5-4.1-11-3.5-16.7.7-6.8 4.5-13.1 9.3-17.9 7-6.7 16.5-10.7 26-12Z" fill="#fff"/><path d="M369.5 468.7c17.6-2.7 37.9 3.4 47.7 19.1 5.5 8.6 6.3 20 2 29.2-3 6.3-8 11.6-13.8 15.4a52 52 0 0 1-24.4 7.8 48.4 48.4 0 0 1-39.4-15.8 31.3 31.3 0 0 1-7.5-22.4c.5-8.3 4.6-15.7 10.5-21.4 6.9-6.5 15.6-10.3 24.9-11.9Z" fill="#000"/><path d="M376.6 474.1c9.6-.3 19.5 2.3 27.3 8 5.2 3.8 9.5 9.2 11.2 15.4a25 25 0 0 1-2.1 18.6 36.6 36.6 0 0 1-23 16.7 44.9 44.9 0 0 1-40.8-9 26.8 26.8 0 0 1-9.2-22.3c.7-5.4 3.1-10.6 6.8-14.7a41 41 0 0 1 29.8-12.7Z" fill="#fff"/><path d="M551.5 477.6a16 16 0 0 1 19.9 18.4A15.8 15.8 0 0 1 556 509a15.9 15.9 0 0 1-4.5-31.3Z" fill="#000"/><path d="M553.6 483.2c4-.7 7.8.6 10.2 4 3 4 2.3 9.8-1.4 13.2-4.4 4-11.8 3.4-15.1-1.7a10 10 0 0 1 6.3-15.5Z" fill="#fff"/><path d="M618.7 484.2c1.7.3 3.6-.2 4.6 1.4 1.6 2.5 2.4 5.6 2.9 8.5a35 35 0 0 1-9.8 29.2c-3.3 3-7.9 6-12.4 6.2-2.8 0-4.3-2.7-2.4-4.8 3.3-1.7 6.6-2.2 9.5-4.6 6.3-5.3 9.6-14 9.6-22.1 0-4-1.6-7.2-2.7-11l.7-2.8ZM380.4 488.5c4.5-.9 9.2.5 12.7 3.3a17 17 0 0 1 4.7 19.8c-2.6 5.9-8.2 10.2-14.8 10.2-8.5.6-16-6.4-16.4-14.8-1-8.7 5.2-17 13.8-18.5Z" fill="#000"/><path d="M379.5 494.8c5.1-2 11 .6 13 5.7 2.8 6.4-1.6 14.7-8.7 15.4a9.9 9.9 0 0 1-10-4.8 11.4 11.4 0 0 1 5.7-16.3Z" fill="#fff"/><path d="M330.4 503.6c.5 4-1.4 7.4-1.6 11.4-.3 6 2.4 12.1 7.3 15.9 2.4 1.9 5 2.8 7.7 4.3 2 .8 1.9 2 1.6 3.9-1.5 1.8-3.3 1.4-5.3.8a26.3 26.3 0 0 1-16-16 25 25 0 0 1 1.4-19.4c1.3-1.9 3-.9 5-.9Z" fill="#000"/></g><g transform="translate(-161 -83)"><path d="M607 397.6c1.5-.4 3.2.6 4.7 1 0 1.2-.1 2.4-.4 3.6-1.6 1.5-3.6 2.6-5.4 3.8a803.6 803.6 0 0 1-70.4 40.6A289.9 289.9 0 0 1 500 462a50 50 0 0 1-21 3.5c-3.3-.4-6.2-3-6.2-6.5 0-4.2 3-8.6 5-12.1 1.3-2.7 4.5-3 7-4.1l111.7-41.5c3.5-1.2 7-2.8 10.5-3.7ZM339 432.6l90 18c2.3.4 4.6.1 6.9.5 2.4 2.3 3.6 6.2 4.5 9.4 1.2 4-.1 8.8-4 11-4 2.6-9.8 2.1-14.4 1.9-8.8-1-17.4-3.8-25.7-6.8a418 418 0 0 1-57-27c-1.6-.9-3.6-1.9-4.8-3.5-.3-2.9 1.9-4.1 4.5-3.5Z" fill="#000"/></g><g transform="translate(-161 -83)"><path d="M580 568.7c2.4 1 2 3.4 1.4 5.4a92 92 0 0 1-28.4 34 96.5 96.5 0 0 1-60 17.5c-26.8-1-53-12-73.4-29.3-.4-2.4-.5-3.7 1.4-5.4 51.8-7.1 106.8-15 159-22.2Z" fill="#000"/><path d="M573.9 575.5c-8.2 15-21 27.5-36.4 35a89.2 89.2 0 0 1-40.5 9.2c-24.7.2-49-9-68.6-23.9 48-6.6 97.8-13.8 145.5-20.3Z" fill="#8F2E45"/></g><g transform="translate(-161 -83)"></g><g transform="translate(-161 -83)"></g><g transform="translate(-161 -83)"><path d="M514 213c19.8-.4 40.2.2 59.8 3.4C590 219.3 607 223 622 230c15.2 7 28.6 18 38.6 31.4a24 24 0 0 1 4.4 12.2 137 137 0 0 1 54.7 18.7A127 127 0 0 1 772 353a126 126 0 0 1 9 43c0 22-5.7 44.1-17 63.2a4 4 0 0 1-4 2c-3.7-.1-7.3-.8-11-1.2a71.2 71.2 0 0 1-20.2 36 114.5 114.5 0 0 1-46.7 28c-2.1.6-5.3 1.7-6.6-.7-2-3 .3-8 .7-11.3A173 173 0 0 0 635 367a125.2 125.2 0 0 0-68-40c-1.8-.5-3.9-.7-4-3-.2-5.9-3-10.7-7.6-14.3-7-5.2-15.9-7.6-24.4-5.6-17 3.4-33 13.6-45.9 25a170 170 0 0 0-37.7 52.3c-11.3 22.4-20.8 46-31.1 68.8A321.2 321.2 0 0 1 383 509c-11 15-23.8 29-38.5 40.5a170.8 170.8 0 0 1-43 24.2A110 110 0 0 1 271 581c-2.5.1-4.6-2.5-6.2-4.1 2.3-5 6.8-5.2 10.7-8.5 6.1-5 10.2-13 12-20.6 2.2-9.6 2.9-19 3.3-28.8.3-13-2.6-24.6-4.8-37.2-2.5-14.5-4.8-29-6.2-43.8-1.8-16.1-.4-33 2.5-49 4.3-24 13.6-46 25.5-67.2a173.5 173.5 0 0 1 35.4-42.5c32-28.3 70.6-48.8 112-59 19.4-4.8 38.8-6.5 58.8-7.4ZM719 576c2.9-.5 6 1.7 9 2 2.8.6 6 .3 8.8 1.1 1.6 1 1.2 3.2 1.4 4.9-.1 5.8-.3 11.3 1 17 .5 2.9 1.7 6 1.5 8.8-.1 2.3-3 2.7-4.7 2.3-8-1.2-16-5.3-23.2-8.9-2.7-1.4-7-4.7-6-8.2 2.1-4 5.9-7 7.9-11.3 1.4-2.4 2.2-5.9 4.4-7.7Z" fill="#000"/><path d="M545.9 219.3c10.4.9 20.8 1.7 31 3.7 15 3 30.9 6.7 44.6 13.5a98.5 98.5 0 0 1 33.8 27.2c2 2.8 4.1 5.7 3.8 9.3.1 2.1-.8 4.3 1.2 5.7 2 .8 4.4.8 6.5 1.1 19.9 2.8 39.2 10.2 55.8 21.5a119.9 119.9 0 0 1 46.7 61.4c10.1 30.7 6.3 65-10 92.9-3-.5-6.2-.8-9.3-1-.6-1.3-1-4-3-3.9-2.1-.3-3.2 1.6-3.3 3.5-.6 11.2-6 21.9-13 30.6a105.6 105.6 0 0 1-49.4 33.2c5.7-26.3 4.9-53.7-1.9-79.8a173 173 0 0 0-55-89.6 127.9 127.9 0 0 0-55.8-27.7c-2-8.2-6.5-14.5-14-18.6a38.8 38.8 0 0 0-31.1-2.6 114.3 114.3 0 0 0-42.6 25.2 148.5 148.5 0 0 0-28.7 35.3C441 379 431.8 400 423 420c-11.4 26.4-22 51.7-38 75.8-16.7 25-38.6 48.5-65.3 62.8-12.8 6.9-26.9 13-41.2 15.4a48.7 48.7 0 0 0 16.5-33c2-14 2.8-29.1.2-43.2-2.2-12.2-4.5-24.5-6.4-36.8-1.8-13.2-3.8-25.7-3.6-39 0-11.2 1.3-22.2 3.4-33.2 4.2-22.5 13-43.3 24-63.2a172.5 172.5 0 0 1 40.4-46.7A253.1 253.1 0 0 1 496 220c16.4-1.7 33.4-1.4 49.9-.8ZM721.9 582.5c3.5.6 7 1.5 10.6 1.8-.5 7.3.5 14.4 1.6 21.5a98 98 0 0 1-21.4-9.8 72 72 0 0 0 9.2-13.5Z" fill="#514268"/></g><g transform="translate(-161 -83)"></g></g></svg>