<svg xmlns="http://www.w3.org/2000/svg" viewBox="0 0 762 762" fill="none" shape-rendering="auto" width="256" height="256"><metadata xmlns:rdf="http://www.w3.org/1999/02/22-rdf-syntax-ns#" xmlns:xsi="http://www.w3.org/2001/XMLSchema-instance" xmlns:dc="http://purl.org/dc/elements/1.1/" xmlns:dcterms="http://purl.org/dc/terms/"><rdf:RDF><rdf:Description><dc:title>Adventurer</dc:title><dc:creator>Lisa Wischofsky</dc:creator><dc:source xsi:type="dcterms:URI">https://www.figma.com/community/file/1184595184137881796</dc:source><dcterms:license xsi:type="dcterms:URI">https://creativecommons.org/licenses/by/4.0/</dcterms:license><dc:rights>Remix of „Adventurer” (https://www.figma.com/community/file/1184595184137881796) by „Lisa Wischofsky”, licensed under „CC BY 4.0” (https://creativecommons.org/licenses/by/4.0/)</dc:rights></rdf:Description></rdf:RDF></metadata><mask id="viewboxMask"><rect width="762" height="762" rx="381" ry="381" x="0" y="0" fill="#fff" /></mask><g mask="url(#viewboxMask)"><rect fill="#f2e7ca" width="762" height="762" x="0" y="0" /><path d="M396 164.8a224.8 224.8 0 0 1 104.8 42.4c6.2 4.9 12.5 9.4 18 15a225.4 225.4 0 0 1 71.8 149 58.5 58.5 0 0 1 50.9 42.2 71 71 0 0 1-27.6 76.5c-11 7.7-24.5 12-38 11.7-5 0-10-1.6-15-1.8-1.9 2.2-3.3 4.9-4.8 7.3A223.3 223.3 0 0 1 389 609.8c-11 .7-21.9 2-33 .7a223.7 223.7 0 0 1-178.8-342.3A223.4 223.4 0 0 1 352 163.5c14.6-1.4 29.4-.3 44 1.3Z" fill="#000"/><path fill-rule="evenodd" clip-rule="evenodd" d="M498.8 213.2A216 216 0 0 0 363 169c-13-.2-26.2 1.6-39 4a218 218 0 0 0-113.6 365.5 218.5 218.5 0 0 0 260.4 40.2c35-18.8 64.2-47.3 84.4-81.5l-3-1.6c-2.8-1.4-5.7-3-8-5-2.2-2-.3-5.8 2.7-4.7 1.5.7 3 1.6 4.4 2.4a55 55 0 0 0 59.6-3.6 64.5 64.5 0 0 0 25-69.8 53.1 53.1 0 0 0-24-31 52.6 52.6 0 0 0-47-2.8c-1.6.8-3.4 1.5-5 1.3-2.5-.2-2.8-4.2-.6-5.2 8-4 16.5-5.6 25.4-6.4a217 217 0 0 0-72-146.4c-4.4-4-8.7-8.1-13.9-11.3Zm107.6 196.2c2-1.2 1.3-5.1-1.4-5-2 0-4.2.8-6.2 1.6l-1.4.4a95.1 95.1 0 0 0-25.5 12.4c-2.2 2-2.2 4.4.1 6.2a92 92 0 0 0 5.2 2.8 36 36 0 0 1 13 9.2c-.2 1.9-2 3.4-3.4 4.5l-.2.2c-3.9 3-8.8 5-13.6 7-2.5 1-4.9 2-7.1 3.1-1.7.8-2.6 2.2-1.6 3.9 1 2 3.2 1.1 5 .5l.6-.2 5.4-2.3c5.4-2.3 11-4.5 15.4-8 2.7-2.1 5.1-5.1 5.4-8.7-.5-3.4-2.7-5.7-5.3-7.8a83 83 0 0 0-11.6-7.2l-1.1-.6c5.4-3 10.8-5.6 16.6-7.7l5-1.7a52 52 0 0 0 6.7-2.6Z" fill="#b8764e"/><g transform="translate(-161 -83)"><path d="M547.5 424.8a65.2 65.2 0 1 1 18.8 129 65.2 65.2 0 0 1-18.8-129Z" fill="#000"/><path d="M549.2 430.3a59.6 59.6 0 1 1 15.3 118.3 59.6 59.6 0 0 1-15.3-118.3Z" fill="#fff"/><path d="M381.2 447.1a55.3 55.3 0 0 1 60 45.4 54.9 54.9 0 0 1-103.8 33.1 54.2 54.2 0 0 1-4.7-32.6 54.5 54.5 0 0 1 48.5-45.9Z" fill="#000"/><path d="M378.2 453.3a49.4 49.4 0 1 1-6 95.5A49.5 49.5 0 0 1 352 467c7.1-7.1 16.3-11.9 26.2-13.7Z" fill="#fff"/><path d="M558.8 456.7c-3.9 4-6.7 8.6-6.7 14.3a20.7 20.7 0 0 0 12.5 20.4c6 2.5 12.3 1.4 17.7-2a36.3 36.3 0 1 1-52.8-31 38.5 38.5 0 0 1 29.3-1.7ZM392 467.9a35 35 0 0 1 22.7 4.3c-3 3-5.4 6.3-5.5 10.8a14.6 14.6 0 0 0 11.8 15.5c3.4.6 6.2-.5 9.4-1.4a34.4 34.4 0 0 1-14.8 31.5 33.3 33.3 0 1 1-23.6-60.7Z" fill="#000"/><path d="M527.4 489.5c2.3-1 4.8-1.3 7 .2 3.5 2.3 3.5 7.5.8 10.5s-7.8 3.2-10.4-.1c-2.8-3.4-1.3-8.7 2.6-10.6ZM379.4 495.6c4.8-1.7 9.4 3.5 7.1 8-1.6 3.6-7 4.3-9.4 1.3-2.6-3-1.5-8 2.3-9.3ZM536.5 504.7c2.5-.8 5.3-.6 7.8.1 6.1 2.4 8 11.2 3.6 16-4 4.8-11.8 5-15.8 0-4.4-5.3-2.4-13.9 4.4-16.1ZM386.5 512.7c3.4-1 7.1-.6 9.6 2.2 3.5 3.4 3.4 9.6-.6 12.6-4 3.5-10.7 1.8-13.2-2.8-2.6-4.3-.6-10.3 4.2-12Z" fill="#fff"/></g><g transform="translate(-161 -83)"><path d="M531 352.3a85.8 85.8 0 0 1 60.6 15.1 82.9 82.9 0 0 1 29 33c1 3-.4 3.8-2.6 5.3-4-2.2-6.9-5.6-10.5-8.3-13-9.7-28-16.3-43.7-20.2-15-3.5-30.6-5-45.8-2.8-4.8.4-9.3 2-14 2.7-2.4.2-5.1-1.2-4.2-4 1.9-4.2 4.2-8.6 7.6-11.7a45 45 0 0 1 23.6-9ZM383 428.8c13.4-.8 26.3-.6 39 4.3 5.9 2.3 11.6 5.9 14 12a14 14 0 0 1-1.8 12.6c-4.9-.7-9.4-2.6-14.1-3.8a203 203 0 0 0-71-6c-5 .4-10 2-14.8 1.8-1.8-.5-1.2-2.2-1-3.5.9-2.5 3.6-3.9 5.8-5.1a119.2 119.2 0 0 1 43.9-12.3Z" fill="#000"/></g><g transform="translate(-161 -83)"><path d="M473 557.8a84.3 84.3 0 0 1 43.7 8.6 188.2 188.2 0 0 1-65.7 15.5c-7.2 0-14.3.2-21.5-.6.7-5.9 3-9.6 7.7-13a68 68 0 0 1 35.8-10.5Z" fill="#D31E1E"/><path d="m525 563.7 1.2 2.3c.4 2.7-2 3.4-3.8 4.4a184 184 0 0 1-85.8 17c-5-.6-10.2-.7-15-2-2.3-1-2.6-4-.3-5.2 2.7 0 5.5.9 8.2 1 7.2 1 14.3.7 21.5.7 22.5-.8 45-6.8 65.7-15.5 2.8-1.2 5.2-2.6 8.3-2.7Z" fill="#000"/><path d="M510.2 575.4c-2 10.1-10.3 17.2-19.2 21.6a56.4 56.4 0 0 1-34 4.8c-8.7-1.8-16.5-6.2-20.4-14.5a184 184 0 0 0 73.7-12Z" fill="#D31E1E"/></g><g transform="translate(-161 -83)"><path d="M630.4 552.4a40.8 40.8 0 0 1 39.5 66.6 40.8 40.8 0 1 1-39.6-66.6ZM373.1 564.9a37.7 37.7 0 0 1 3 61.5 213 213 0 0 1-35-43.6c-3.3-5.9-6.7-11.2-8.8-17.6a38 38 0 0 1 40.8-.3Z" fill="#CA8D87"/></g><g transform="translate(-161 -83)"><path fill-rule="evenodd" clip-rule="evenodd" d="M531.3 506.7a27.9 27.9 0 1 1-42.8 24.6c-8.6-10.1-25.5-13.9-36.5-5.2-3.2 3-6.6 7.3-6.7 11.9a27.5 27.5 0 0 1-52.9 5.6 27.6 27.6 0 0 1 10.5-32.7 28 28 0 0 1 25.7-2.5 28.6 28.6 0 0 1 16 17.4 27.2 27.2 0 0 1 22.4-10c8.2-.1 15.4 3.2 22 8a28 28 0 0 1 42.3-17Zm-22.6 2.4a22.4 22.4 0 0 1 29.9 23c-.6 9.9-8.4 18.2-18.1 20.2a22.6 22.6 0 0 1-25.9-16.3c-3-11.1 3.2-23 14-26.9ZM438 525a22 22 0 0 0-23-12.8 22 22 0 0 0-12.6 37.3c6.1 6 15.8 8.1 23.7 4.9 6.8-2.7 12.2-9 13.4-16.3.5-4.6.7-9-1.5-13.1Z" fill="#000"/></g><g transform="translate(-161 -83)"><path d="M549.9 190.3a142.6 142.6 0 0 1 71.6 43.5c6.7.4 13 .5 19.5 2 9.6 2.2 18.7 6 27.2 10.9a121.5 121.5 0 0 1 44.1 46.7c11.9 5 22 14.4 30.3 24 12.8 15 22.9 32.4 30.5 50.4A186 186 0 0 1 789 438a72 72 0 0 1-6.3 30.6c-1.2 2.5-3 2.3-5.1.9a50 50 0 0 0-34.3-9.7 88.5 88.5 0 0 1-8.2 46.1 108.7 108.7 0 0 1-44.3 49.8c-4 2.2-8.3 4.3-12.7 5.4-1.8.3-3-.3-3.4-2 0-2.1 1.7-4 2.7-5.7a78.8 78.8 0 0 0 8-16c4.6-11.8 7.6-24.3 9.6-36.9 2.6-18 3.9-37.3-.7-55.2-4.2 3-8.4 6.7-13.2 8.5-2.7 0-3.7-2.5-3-4.8 1-3.2 2.8-6 3.7-9.3 4.5-15.3 2.5-31-3-45.6a73.1 73.1 0 0 1-11.5 27.3c0 5.3.6 11-.6 16.2-1 2.8-3.1 2.3-5.2 1a488.7 488.7 0 0 0-74.6-35.3 559.7 559.7 0 0 1-77-38 292.8 292.8 0 0 1-27.1-18.2c4.5 8.6 10 16.5 16.5 23.8 6.5 7.3 13.2 14.1 21.2 19.7 2 1.4 4.3 2.6 6 4.3a5 5 0 0 1-4.2 5.7c-4.9 1.3-10.2 1.5-15.2 2-6.6.9-13.2.4-19.8-.4a139 139 0 0 1-38.4-9 145 145 0 0 1-67.2-51.6c-11.3 10.8-20.6 26.3-18.8 42.5 0 2.2-1 5.4-3.7 4.7a57.5 57.5 0 0 1-26.7-16c-4.6 7.5-7.8 15.7-10.6 24a251.6 251.6 0 0 0-11.4 55.2c-.6 6.3.3 12.4-.8 18.7-2.2 0-4.1.2-5.9-1.4a49.7 49.7 0 0 1-16.3-29.1 94.8 94.8 0 0 1 5.4-52.3 92.5 92.5 0 0 1 27.1-38.4A62.6 62.6 0 0 1 326 305a72.6 72.6 0 0 1 41.7-34.2 66.2 66.2 0 0 1 33.5-37.7 92.6 92.6 0 0 1 47.7-9.6 96.3 96.3 0 0 1 44.3-30.3c18-6.7 38.1-7 56.7-2.9ZM828.8 471.1a91.6 91.6 0 0 1 46.6 21.5c2.3 2 5.1 3.9 7 6.4.3 2.9-1.2 4.3-4 3.5-10-3-20.2-3-30.4-1.5-10 1.5-19.7 4-28.7 8.5 10.2 2.3 19.9 7 28.6 12.6 12 7.9 22 18.5 28.5 31.5 1 2.2 2 4.4 4 6 14.8 14.1 23 35 22.2 55.4-.4 17.1-7.2 34-19.8 45.8-1.4 1.2-2.8 2.2-4.7 1.3-1-.6-3.5-1.5-3-3 1-14.9-1-29.6-8.2-42.8A93 93 0 0 1 864 638a100.4 100.4 0 0 1-73.8 71.3 74.2 74.2 0 0 1-34.8-.9c-2.5-.4-4-4-1.8-5.6 3.8-1.7 7.7-2.8 11.4-4.8 2.1-1.2 5.2-2.4 6.2-4.7a65 65 0 0 0 4.9-14.1c1.7-9.3 3-17.9-.4-27-3.9-1.8-8-2.9-11.5-5.4a58.4 58.4 0 0 1-24.4-50.5 72.7 72.7 0 0 1-43 22.7c-1.8.2-4.1 0-4.5-2.2-.4-1.4 0-2.4 1-3.5a257 257 0 0 0 24.4-35.7c.8-1.7 3.8-.9 5.3-.7a60.8 60.8 0 0 0 69.3-32.7 60.8 60.8 0 0 0-1.4-60.1 7.7 7.7 0 0 1-1.6-6l6-2.8c10-5.1 22.6-5.5 33.5-4.2ZM296 486.9c4.5 0 9.4.6 13.4 2.8 2 1 1.6 3.4 2 5.3.9 12.4 3.7 24.4 7.2 36.2 6 19.4 14.4 38 24.9 55.3 5.2 8.3 10.7 16.4 17.4 23.6 2 2.3 3.7 4.6 2 7.7a83 83 0 0 1-24.5 26.6 57.3 57.3 0 0 1-24.3 11 48 48 0 0 0-2 22.6l-.9 2.5c-1.9.3-3.5.6-5.4-.2a103 103 0 0 1-32-20 58.6 58.6 0 0 1-17.7-31.4c-4.7-2-7.2-5.8-10.5-9.5a49.2 49.2 0 0 1-11.1-29.4 64.6 64.6 0 0 1 7.3-30.2c5.2-10.8 11.8-22 20.7-30.3 3.3-3.2 7-5.9 10.7-8.6-7 2-13.7 4.2-19.4 9-1.3.7-3.4 2.9-4.9 1.6-2.7-1.1-1.8-4.5-1.2-6.7a56 56 0 0 1 48.3-38Z" fill="#000"/><g fill="#c99550"><path d="M577.5 206.7a172 172 0 0 1 59.4 55.4c14.7 21 24.7 44 32.8 68.1 1 2.2 1.7 3.6 4.4 3 2.2-2.3 1-4.7.3-7.4a353.8 353.8 0 0 0-12.3-31c-9-19.9-21-38.5-35.1-55 6.1.6 12.1 1.3 18 3a97.7 97.7 0 0 1 43.1 27c17 18 28.4 41.1 33.2 65.2 4.8 24.9 3 50.6-7.3 73.9-6.2 13.9-15.4 25.9-27.6 35.1a74.4 74.4 0 0 0-6.5-59.6c.5-6 .5-12.3-.2-18.4-.2-1.7-.5-3.8-1.9-5-1.4-1.4-4.3-.1-4.2 2 0 2 .4 4 .6 6a84.6 84.6 0 0 1-7.7 44.2 189 189 0 0 0-19.2-62.5c-6-11.3-13.8-21.2-22-31-1.2-1.4-2.5-3-4.1-4-1.2-.3-2.5-.2-3.8-.3 0 2-.7 3.6 1 5.2a156 156 0 0 1 38.5 72.4c3.4 12.8 5.4 26 5.2 39.2a487.3 487.3 0 0 0-65.3-31A582.2 582.2 0 0 1 549 380c-25.7-13-50.6-26.5-72.4-45.5-7.4-6.7-15-15-18.8-24.3-1.3-3 0-5.6-.2-8.7-1.7-1.8-4.9-1-5.5 1.5-1.1 4.3.6 9.4 2.6 13.2 5 9.6 12 17.1 20 24.3.6 3 1.4 6.1 2.9 9A126.2 126.2 0 0 0 502 382c4.9 5 10.4 9.4 16 13.6-13.8 2.3-28.2 2-42-.7-28-5.3-54.5-19-74.9-39-14-14-25-31-29.2-50.4a60.1 60.1 0 0 1-1-21.7 56.9 56.9 0 0 1 23.3-39.6c15-11 32.7-14.9 51-15.6-3.4 6.9-7.3 14-7.7 21.9 1.6 1.4 3.7 3.3 5 .3a59.4 59.4 0 0 1 22.6-35.7c13.4-10.8 30-17.9 47-20.8 22.7-3.3 45 2 65.4 12.4Z"/><path d="M366 277.4a83 83 0 0 0 12.4 59.3c-12.5 11.7-22.3 28-21.6 45.5-5-2-9.8-4.5-14.1-8a48.7 48.7 0 0 1-17.8-29.2 53.9 53.9 0 0 1 2.7-29.5 66 66 0 0 1 38.4-38ZM716.6 302a119 119 0 0 1 33 34.2 209.3 209.3 0 0 1 31.2 76.8c2.8 16.7 4 34-1.9 50.2a57.6 57.6 0 0 0-36.8-9c-1-2.4-1.5-6.4-4-7.6-2.2-.3-3.6 1.2-3.2 3.4 1 4.7 2.6 9.1 2.9 14a86 86 0 0 1-9.8 43.1 101 101 0 0 1-43 45.1 165.7 165.7 0 0 0 16-53.8c1.3-8.4 1.6-17 2.1-25.4a122 122 0 0 0-4.1-32.2 110 110 0 0 0 30.4-78.8 139 139 0 0 0-12.8-60ZM321.8 355.4c1.9 4.4 4 8.5 6.8 12.5-3.9 5.8-6.7 12.1-9.3 18.6a252.6 252.6 0 0 0-12.4 47.3c-1.5 9.4-2.7 18.9-2.6 28.4-4.7-5.3-7.8-11-9.9-17.7a80.6 80.6 0 0 1-.3-41.5 92.9 92.9 0 0 1 27.7-47.6ZM829.5 476.9a90 90 0 0 1 39.6 18 92.6 92.6 0 0 0-56.2 12c-2 1.3-4.2 3-3.4 5.6.4 2 4 1.8 5.5 2 7.3.5 13.5 3.4 19.9 6.5a82 82 0 0 1 32.9 29.2 53.7 53.7 0 0 0-24.8-7c-2.5.2-3.4 3.8-1 5 3.2 1 6.7 1 10 1.9a58 58 0 0 1 33.8 25.1 69 69 0 0 1 11.1 38.8c-.2 15-5.8 29.9-16.2 40.8-.3-6.8 0-14.1-1.6-20.8a63.2 63.2 0 0 0-10.1-25c-1.3-1.8-3-3-3.3-5a66.7 66.7 0 0 0-5-15.8c-.5-1.2-1.7-2.1-2.6-3-1 .6-2 1.4-2.8 2.1-.7 1.4.4 3.2.8 4.5 4.7 11 6 23.2 4.3 35a94.5 94.5 0 0 1-46.4 67.1 80.2 80.2 0 0 1-50.4 10.7 83 83 0 0 0 37-31c5.1-7.7 7-16.6 7.6-25.7.3-3.4-4.3-4.5-5.3-1.1-1.1 6.2-1.4 12.2-4.1 18a73.4 73.4 0 0 1-20.3 24.8 76.5 76.5 0 0 0 4.9-25.6 33 33 0 0 0-4-17.1 35.3 35.3 0 0 1-15.6-7.7 53.9 53.9 0 0 1-18.4-39.2c.2-6.2 1.6-11.5 4.8-16.8a68 68 0 0 0 40.4-25.6 72 72 0 0 0 14.7-38.6 65 65 0 0 0-9.5-38.2c10.6-5.6 22-5.4 33.7-4ZM288.2 493.7c6-1.7 11.5-1.5 17.3.4.3 6 1.3 11.8 2.3 17.7a236.2 236.2 0 0 0 50 103.7 83.6 83.6 0 0 1-30.9 29.4 41 41 0 0 1-15 5c-2 .2-2.3 1.3-3 3a62.6 62.6 0 0 0-3.2 21c-15.1-6.6-30.2-16.4-38.5-31.1a49.8 49.8 0 0 1-4.5-37 96.5 96.5 0 0 1 20-37.2c1.5-1.8 2.1-5-.7-5.8-2-.5-3.2 1.5-4.4 2.7-12.9 16.2-22.7 34.8-22.4 56-6-6.1-11-13-13.3-21.3-2-7.5-2.5-15.3-.4-23 3.6-12.6 9.8-24.6 17.4-35.2a76.3 76.3 0 0 1 29-23.2c2.4-1.6 1-5-1.8-5-11 0-22 3.3-31.5 8.8a51.6 51.6 0 0 1 33.6-29ZM721.6 582.5c6.9 1.5 13.8 1.7 20.8 1.7a73 73 0 0 1-42 28.6c8-9.5 14.4-20 21.2-30.3Z"/></g></g><g transform="translate(-161 -83)"></g></g></svg>