<svg xmlns="http://www.w3.org/2000/svg" viewBox="0 0 762 762" fill="none" shape-rendering="auto" width="256" height="256"><metadata xmlns:rdf="http://www.w3.org/1999/02/22-rdf-syntax-ns#" xmlns:xsi="http://www.w3.org/2001/XMLSchema-instance" xmlns:dc="http://purl.org/dc/elements/1.1/" xmlns:dcterms="http://purl.org/dc/terms/"><rdf:RDF><rdf:Description><dc:title>Adventurer</dc:title><dc:creator>Lisa Wischofsky</dc:creator><dc:source xsi:type="dcterms:URI">https://www.figma.com/community/file/1184595184137881796</dc:source><dcterms:license xsi:type="dcterms:URI">https://creativecommons.org/licenses/by/4.0/</dcterms:license><dc:rights>Remix of „Adventurer” (https://www.figma.com/community/file/1184595184137881796) by „Lisa Wischofsky”, licensed under „CC BY 4.0” (https://creativecommons.org/licenses/by/4.0/)</dc:rights></rdf:Description></rdf:RDF></metadata><mask id="viewboxMask"><rect width="762" height="762" rx="381" ry="381" x="0" y="0" fill="#fff" /></mask><g mask="url(#viewboxMask)"><rect fill="#e3eaf0" width="762" height="762" x="0" y="0" /><path d="M396 164.8a224.8 224.8 0 0 1 104.8 42.4c6.2 4.9 12.5 9.4 18 15a225.4 225.4 0 0 1 71.8 149 58.5 58.5 0 0 1 50.9 42.2 71 71 0 0 1-27.6 76.5c-11 7.7-24.5 12-38 11.7-5 0-10-1.6-15-1.8-1.9 2.2-3.3 4.9-4.8 7.3A223.3 223.3 0 0 1 389 609.8c-11 .7-21.9 2-33 .7a223.7 223.7 0 0 1-178.8-342.3A223.4 223.4 0 0 1 352 163.5c14.6-1.4 29.4-.3 44 1.3Z" fill="#000"/><path fill-rule="evenodd" clip-rule="evenodd" d="M498.8 213.2A216 216 0 0 0 363 169c-13-.2-26.2 1.6-39 4a218 218 0 0 0-113.6 365.5 218.5 218.5 0 0 0 260.4 40.2c35-18.8 64.2-47.3 84.4-81.5l-3-1.6c-2.8-1.4-5.7-3-8-5-2.2-2-.3-5.8 2.7-4.7 1.5.7 3 1.6 4.4 2.4a55 55 0 0 0 59.6-3.6 64.5 64.5 0 0 0 25-69.8 53.1 53.1 0 0 0-24-31 52.6 52.6 0 0 0-47-2.8c-1.6.8-3.4 1.5-5 1.3-2.5-.2-2.8-4.2-.6-5.2 8-4 16.5-5.6 25.4-6.4a217 217 0 0 0-72-146.4c-4.4-4-8.7-8.1-13.9-11.3Zm107.6 196.2c2-1.2 1.3-5.1-1.4-5-2 0-4.2.8-6.2 1.6l-1.4.4a95.1 95.1 0 0 0-25.5 12.4c-2.2 2-2.2 4.4.1 6.2a92 92 0 0 0 5.2 2.8 36 36 0 0 1 13 9.2c-.2 1.9-2 3.4-3.4 4.5l-.2.2c-3.9 3-8.8 5-13.6 7-2.5 1-4.9 2-7.1 3.1-1.7.8-2.6 2.2-1.6 3.9 1 2 3.2 1.1 5 .5l.6-.2 5.4-2.3c5.4-2.3 11-4.5 15.4-8 2.7-2.1 5.1-5.1 5.4-8.7-.5-3.4-2.7-5.7-5.3-7.8a83 83 0 0 0-11.6-7.2l-1.1-.6c5.4-3 10.8-5.6 16.6-7.7l5-1.7a52 52 0 0 0 6.7-2.6Z" fill="#ecad80"/><g transform="translate(-161 -83)"><path d="M555 424a65.3 65.3 0 0 1 66.3 75.5c-1 7.6-4 14.4-6.8 21.4-1.5.6-3 1.2-4.4 1.6-3.2 0-6.4-1.4-9.4-2.2a176.2 176.2 0 0 0-47.7-7 97.3 97.3 0 0 0-39.3 8.4c-2.9 1.3-5.7 3-8.6 3.9-3.6-.3-4.4-3.2-6-5.8A65.9 65.9 0 0 1 512 442c11.6-11 27-17.5 43-18Z" fill="#000"/><path d="M557 429.9a58.8 58.8 0 0 1 57.1 43.1 59.9 59.9 0 0 1-4.2 43.5c-6.2-.9-11.9-3-18-4.3a156.5 156.5 0 0 0-51.4-3.5 91.3 91.3 0 0 0-34.8 11.2 59.9 59.9 0 0 1 9.8-73.4 59.1 59.1 0 0 1 41.5-16.6Z" fill="#fff"/><path d="M381.2 447a55.4 55.4 0 0 1 60 45.4 55 55 0 1 1-59.9-45.4Z" fill="#000"/><path d="M376.5 453.7A49.6 49.6 0 0 1 436 506a49.9 49.9 0 0 1-45.1 45 49.3 49.3 0 0 1-14.5-97.3Z" fill="#fff"/><path d="M519.4 474.7a15.9 15.9 0 1 1 7.1 30.9c-9.2 2.2-18.8-5-19-14.6a15.7 15.7 0 0 1 12-16.3ZM403.4 485.6c9.6-3.2 20 4.4 20.4 14.3.8 8.9-6.9 17.1-15.8 16.8-8.6.4-16-7.1-16-15.7-.2-7 4.8-13.5 11.4-15.4ZM598.8 532.7l3.2 1c-.5 1.7-.3 3.3-1.7 4.5A39.8 39.8 0 0 1 575 548c-3.8-.1-8.6-1-11.5-3.8l-.4-3.6 2.8-1c4.5 2.2 9 3.5 14.1 2.3 7.5-1.3 12.6-5.5 18.8-9.3ZM347 547.8c2.3-.5 4 1.4 5.6 2.6a52.7 52.7 0 0 0 33.4 11.4c5.8.1 10.9-2.2 16.7-1.3-.5 2.4 0 4.4-3 5a58 58 0 0 1-52.8-12.4c-1.8-1.4-2.2-4.4.2-5.3Z" fill="#000"/></g><g transform="translate(-161 -83)"><path d="M582.3 370.7c14 7 27.8 17.3 36.6 30.5a3 3 0 0 1-4.3 4.2A104.4 104.4 0 0 0 482 425c-1.6 2-4 3.6-6.2 1.2-1.7-2.6-2.3-6-3.3-9-2 4.8-3.9 9.6-6.2 14.1-1.6 3.2-6 1.1-7-1.4-3.1-6.9-6.3-13.8-9-20.8v17c-.2 2 .2 4.3-2.2 5.1-2 .3-4.3-1-5.3-2.9-3.2-5.8-6.2-11.9-9.4-17.8 1 5.5 2.6 11 3 16.6.2 2-2.2 3.4-4 2.3a132.6 132.6 0 0 0-58.3-10 65.3 65.3 0 0 0-36 12.6c-3 2.4-5.2 5.5-8 8.2-1.6.7-3.2-.3-4.9-.7.1-1.9.2-3.7.8-5.6a86.6 86.6 0 0 1 40-50c13.5-7.4 30.1-9 44.6-3.4a57.4 57.4 0 0 1 27.6 24c2.4-2.9 4.3-6 6.8-8.8 1.6-1.5 4.6-1.5 5.6.8 2.6 5.1 4.7 10.5 7 15.7L462 390c.4-1.5.6-3.2 1.6-4.5 1.7-1.2 3-.2 4.7.1l.8 2.6c2-4.8 4.7-9.1 8.4-12.8A62.1 62.1 0 0 1 512 359c23.9-3.6 48.9 1.2 70.4 11.8Z" fill="#000"/></g><g transform="translate(-161 -83)"><path d="M535 563a31.4 31.4 0 0 1 22.7 17.3 48 48 0 0 1 3.5 23.7 53 53 0 0 1-15 30.2 65.7 65.7 0 0 1-33.2 18.9 140.5 140.5 0 0 1-62 .3 85.4 85.4 0 0 1-38.6-19.8c-4.5-4.2-9-9.1-11-15A30 30 0 0 1 403 595c3.3-6.3 9.9-10.5 17-10.7 12.7-.7 23.9 4.2 36 4.8 7.8 0 15.9-1.1 23.2-4 11.3-4.8 21.3-14.5 32.8-19.1 7.4-3 15.1-4.6 23-3Z" fill="#000"/><path d="M538 569.9c7 2.5 12.7 7.9 15.1 15-3 2.5-5.8 5-9 7.3-3.6 2.6-7.2 4.4-9.9 8-3.2 4-6 9.9-10.4 12.5-3.4-.4-6.6-2.9-9.8-4-2.4-.7-5.4.4-7.8 1a167.3 167.3 0 0 1-37.2 5.9 46 46 0 0 0-9.6 1c0 1.2 0 2.4.3 3.6 1.9 1.5 5 1.3 7.3 1.5 15.3-.6 30.3-3.2 45-7.3 3.7 0 9.4 5.2 13.9 3.5 5.3-2.5 9-9 12.4-13.6 1.9-2.8 4.5-4 7.1-5.9 3.4-2.2 6.5-4.7 9.6-7.3a46 46 0 0 1-.4 17c-2.2 9.3-8.1 17.9-15 24.5a66.5 66.5 0 0 1-37.1 16.6 141 141 0 0 1-36.5.8 87.2 87.2 0 0 1-48.4-19.6c-5-4.7-9.8-8.9-11.2-16-2.3-8.6.4-20.7 10.1-23.5 8.2-2 17.8.5 26 2.2 12 2.8 25 2.4 36.7-1.7 14-4.9 25-17 38.8-21.3a30 30 0 0 1 20-.2Z" fill="#fff"/></g><g transform="translate(-161 -83)"></g><g transform="translate(-161 -83)"></g><g transform="translate(-161 -83)"><path d="M484 203.3c31.3-2 63.4.1 93.9 8 21.5 5.4 42.2 13.8 60.9 26.1 23.4-3.9 47.9.9 69.4 10.4a172.1 172.1 0 0 1 60.1 45.8 164.6 164.6 0 0 1 38.8 87.4c1 12.2.9 25-1.8 37a91.5 91.5 0 0 1-26.1 48.2c-1.9 1.5-3 2.2-5.4 1a61.1 61.1 0 0 0-49.6-3c1 10.6.3 21-4.5 30.6a33 33 0 0 1-15.7 15.6c-2.7.9-4.6-1.4-3.5-4 3.3-8.1 3-16.7 2.8-25.4a149 149 0 0 0-2.9-23.5c-7.6.9-15.3.3-22.5-2.4a87.2 87.2 0 0 1-37-29 205 205 0 0 1-27.8-49.2c-9.5-23.3-16-48-20.2-72.8-.7-3.9-1-7.7-2.1-11.4-20.3-1.1-40.6-1-60.8-.4a631.8 631.8 0 0 0-65 7 452.8 452.8 0 0 0-96.2 25.6c-2.5 1.1-5 1.9-6.9 4a145.6 145.6 0 0 0-16.2 21.8 258.6 258.6 0 0 0-27 59.1c-1.1 3.2-1.6 6.8-3.2 9.7-1.4 1.6-3.4 1-4.8-.2a102.5 102.5 0 0 1-29.8-41.3 83.1 83.1 0 0 1-4.4-39.8c2.6-19 11.3-36.6 23.2-51.6 19-24 45.9-42.4 73.5-55.3a317.4 317.4 0 0 1 110.8-28Z" fill="#000"/><path d="M517 208.5c7.7.7 15.3.7 23 1.8 33.2 3.7 67.5 13.5 95.6 32 .8.5 1.6 1 2.4 1.2 16.3-3.4 34-1.6 49.8 3a160 160 0 0 1 77.4 52.4 162.1 162.1 0 0 1 34.3 71c3.1 16.7 3.5 33.6-.7 50.1a86.2 86.2 0 0 1-23.1 41.5 67.8 67.8 0 0 0-52.2-3.1c-2 .8-5.6 1.7-5.4 4.5 2.1 13 0 28-9.7 37.6 1.7-15.1.5-30.6-2.5-45.5-.7-3-1.8-3.8-4.9-3.4-9 1.4-17.6-.1-25.8-4a84 84 0 0 1-28.4-23.4c-12.3-15-21.6-33-28.9-51-10-25.1-16.6-51.6-20.6-78.2-.5-2.2.3-6.8-2.4-7.6-7.3-.7-14.6-.8-21.9-1.4-13.6 0-27.4-.6-41 .6A560.9 560.9 0 0 0 414.1 304c-20 5.3-40 11.9-58.7 20.6a153 153 0 0 0-32.3 19.6 53 53 0 0 0-15.6 19.3c-.6 1.9-1.6 3.8-.8 5.8 1.8 2 4.6 1.4 5.4-1.2 2-5.6 5.2-10.3 9.4-14.5 8.1-8.3 18.6-14.7 28.9-20-4 5-7.6 10.4-11 16a265.7 265.7 0 0 0-27.7 63 96.2 96.2 0 0 1-25.4-36.8 80.5 80.5 0 0 1 2-58.5 133 133 0 0 1 38.2-49.7 225 225 0 0 1 52-32.2c32.2-14.5 67.3-23 102.5-25.9 12-.6 23.9-1.8 36-.9Z" fill="#7f4541"/></g><g transform="translate(-161 -83)"></g></g></svg>